<svg xmlns="http://www.w3.org/2000/svg" xmlns:xlink="http://www.w3.org/1999/xlink" viewBox="0 0 112.73 35.24"><defs><style>.cls-1{fill:url(#linear-gradient);}.cls-2{mask:url(#mask);}.cls-21,.cls-3{font-size:30.91px;font-family:FranklinGothic-Heavy, Franklin Gothic Heavy;font-weight:800;}.cls-4{letter-spacing:-0.02em;}.cls-5{fill:url(#linear-gradient-2);}.cls-6{fill:url(#linear-gradient-3);}.cls-7{fill:url(#linear-gradient-4);}.cls-8{fill:url(#linear-gradient-5);}.cls-9{fill:url(#linear-gradient-6);}.cls-10{fill:url(#linear-gradient-7);}.cls-11{fill:url(#linear-gradient-8);}.cls-12{fill:url(#linear-gradient-9);}.cls-13{fill:url(#linear-gradient-10);}.cls-14{fill:url(#linear-gradient-11);}.cls-15{fill:url(#linear-gradient-12);}.cls-16{fill:url(#linear-gradient-13);}.cls-17{fill:url(#linear-gradient-14);}.cls-18{fill:url(#linear-gradient-15);}.cls-19{fill:url(#linear-gradient-16);}.cls-20{fill:url(#linear-gradient-17);}.cls-21{fill:#000140;}.cls-22{letter-spacing:-0.02em;}.cls-23{letter-spacing:0em;}</style><linearGradient id="linear-gradient" x1="55.49" y1="15.42" x2="-9.2" y2="15.42" gradientUnits="userSpaceOnUse"><stop offset="0" stop-color="#fff" stop-opacity="0.7"/><stop offset="0.12" stop-color="#f6f6f6" stop-opacity="0.69"/><stop offset="0.27" stop-color="#dedede" stop-opacity="0.67"/><stop offset="0.45" stop-color="#b5b5b5" stop-opacity="0.64"/><stop offset="0.65" stop-color="#7d7d7d" stop-opacity="0.6"/><stop offset="0.86" stop-color="#353535" stop-opacity="0.54"/><stop offset="1" stop-opacity="0.5"/></linearGradient><mask id="mask" x="-9.2" y="-0.79" width="64.69" height="36.03" maskUnits="userSpaceOnUse"><rect class="cls-1" x="-9.2" y="-0.79" width="64.69" height="32.41"/></mask><linearGradient id="linear-gradient-2" x1="52.97" y1="26.08" x2="52.97" y2="4.84" gradientUnits="userSpaceOnUse"><stop offset="0" stop-color="#ed1c24"/><stop offset="0.07" stop-color="#ee2626"/><stop offset="0.18" stop-color="#f1422a"/><stop offset="0.33" stop-color="#f56f31"/><stop offset="0.51" stop-color="#fbad3b"/><stop offset="0.52" stop-color="#fbb03b"/><stop offset="1" stop-color="#ed1c24"/></linearGradient><linearGradient id="linear-gradient-3" x1="49.15" y1="26.08" x2="49.15" y2="4.84" xlink:href="#linear-gradient-2"/><linearGradient id="linear-gradient-4" x1="45.36" y1="26.08" x2="45.36" y2="4.84" xlink:href="#linear-gradient-2"/><linearGradient id="linear-gradient-5" x1="41.28" y1="26.08" x2="41.28" y2="4.84" xlink:href="#linear-gradient-2"/><linearGradient id="linear-gradient-6" x1="36.49" y1="26.08" x2="36.49" y2="4.84" xlink:href="#linear-gradient-2"/><linearGradient id="linear-gradient-7" x1="32.94" y1="26.08" x2="32.94" y2="4.84" xlink:href="#linear-gradient-2"/><linearGradient id="linear-gradient-8" x1="27.85" y1="26.08" x2="27.85" y2="4.84" xlink:href="#linear-gradient-2"/><linearGradient id="linear-gradient-9" x1="24.33" y1="26.08" x2="24.33" y2="4.84" xlink:href="#linear-gradient-2"/><linearGradient id="linear-gradient-10" x1="20.36" y1="26.08" x2="20.36" y2="4.84" xlink:href="#linear-gradient-2"/><linearGradient id="linear-gradient-11" x1="15.37" y1="26.08" x2="15.37" y2="4.84" xlink:href="#linear-gradient-2"/><linearGradient id="linear-gradient-12" x1="11.77" y1="26.08" x2="11.77" y2="4.84" xlink:href="#linear-gradient-2"/><linearGradient id="linear-gradient-13" x1="9.13" y1="26.08" x2="9.13" y2="4.84" xlink:href="#linear-gradient-2"/><linearGradient id="linear-gradient-14" x1="6.7" y1="26.08" x2="6.7" y2="4.84" xlink:href="#linear-gradient-2"/><linearGradient id="linear-gradient-15" x1="4.21" y1="26.08" x2="4.21" y2="4.84" xlink:href="#linear-gradient-2"/><linearGradient id="linear-gradient-16" x1="2.53" y1="26.08" x2="2.53" y2="4.84" xlink:href="#linear-gradient-2"/><linearGradient id="linear-gradient-17" x1="0.84" y1="26.08" x2="0.84" y2="4.84" xlink:href="#linear-gradient-2"/></defs><g id="Layer_2" data-name="Layer 2"><g id="Layer_1-2" data-name="Layer 1"><g class="cls-2"><text class="cls-3" transform="matrix(-0.2, 0, 0, 1, 55.03, 25.76)">B<tspan class="cls-4" x="19.86" y="0">A</tspan><tspan x="38.95" y="0">CK TO THE 90’s...</tspan></text><path class="cls-5" d="M52.73,25.76c-.6,0-1-.6-1.19-1.8a26.5,26.5,0,0,1-.28-4.1c0-2.55.27-4.15.79-4.8a4.22,4.22,0,0,1-.51-1.71,21.32,21.32,0,0,1-.17-2.79,21,21,0,0,1,.3-3.75c.19-1.1.51-1.65.94-1.65h2.07v20.6Zm.79-8.33H53c-.19,0-.31.2-.38.6a7.54,7.54,0,0,0-.1,1.3,7.08,7.08,0,0,0,.1,1.28q.11.57.33.57h.61Zm0-7.85H53c-.28,0-.42.58-.42,1.72a7.6,7.6,0,0,0,.09,1.2c.06.37.16.56.3.56h.58Z"/><path class="cls-6" d="M47.22,25.76,48.5,5.16h1.32l1.26,20.6h-1l-.24-4.06H48.73l-.23,4.06Zm2.06-14.53-.33,6h.66Z"/><path class="cls-7" d="M45.28,21.31c.18,0,.32-.4.43-1.21a44.75,44.75,0,0,0,.15-4.57c0-4-.2-6-.59-6-.14,0-.26.31-.37.92a20.55,20.55,0,0,0-.16,3l-1.16-.31a35.24,35.24,0,0,1,.49-6c.29-1.51.7-2.27,1.24-2.27s1,1,1.35,3a49.6,49.6,0,0,1,.49,7.82,44.63,44.63,0,0,1-.51,7.66c-.35,1.85-.79,2.78-1.35,2.78s-.84-.67-1.16-2a29.38,29.38,0,0,1-.55-5.81l1.14-.35C44.76,20.17,44.94,21.31,45.28,21.31Z"/><path class="cls-8" d="M40.72,12.7l-1-7.54h1.12l1.13,8.52V5.16h1.18v20.6H41.94V21l-.43-3-.7,7.78H39.44Z"/><path class="cls-9" d="M35.05,10.1V5.16h2.88V10.1h-.85V25.76H35.9V10.1Z"/><path class="cls-10" d="M31.54,23.12A45.57,45.57,0,0,1,31,15.26a43.39,43.39,0,0,1,.53-7.58c.36-1.89.82-2.84,1.39-2.84s1.09,1,1.44,3a45.72,45.72,0,0,1,.52,7.63,43.67,43.67,0,0,1-.54,7.71q-.54,2.88-1.41,2.88C32.36,26.08,31.9,25.09,31.54,23.12Zm2-7.47c0-4.08-.2-6.13-.61-6.13s-.58,1.79-.58,5.38c0,2.47,0,4.17.14,5.11s.25,1.39.46,1.39Q33.53,21.4,33.53,15.65Z"/><path class="cls-11" d="M26.42,10.1V5.16h2.87V10.1h-.84V25.76H27.26V10.1Z"/><path class="cls-12" d="M23.85,5.16v7.58h1V5.16h1.25v20.6H24.81v-8h-1v8H22.6V5.16Z"/><path class="cls-13" d="M20.66,20.84V17.48H19.17V12.9h1.49v-3H18.82V5.16h3.07v20.6H18.82V20.84Z"/><path class="cls-14" d="M16.43,24.61c-.25,1-.56,1.47-.94,1.47-.58,0-1-1-1.3-3.12a60.8,60.8,0,0,1-.44-8.09,50.29,50.29,0,0,1,.42-7.27c.28-1.84.7-2.76,1.25-2.76s.86.67,1.14,2A25.35,25.35,0,0,1,17,11.94a25.16,25.16,0,0,1-.36,4.69c-.25,1.23-.55,1.84-.92,1.84s-.62-.66-.79-2c0,.25,0,.46,0,.62a31.26,31.26,0,0,0,.14,3.32c.09.81.22,1.21.39,1.21s.35-.64.39-1.9l1,.84A19.42,19.42,0,0,1,16.43,24.61Zm-.7-11.16a10.41,10.41,0,0,0,.12-1.8,10.56,10.56,0,0,0-.13-2c-.08-.43-.18-.64-.3-.64s-.24.23-.32.69A11.6,11.6,0,0,0,15,11.64a9.51,9.51,0,0,0,.13,1.82c.09.42.2.64.32.64S15.65,13.88,15.73,13.45Z"/><path class="cls-15" d="M10.6,23.24a52.57,52.57,0,0,1-.44-7.63,60.26,60.26,0,0,1,.41-7.74c.28-2,.67-3,1.19-3s.88,1,1.18,2.84a53.59,53.59,0,0,1,.44,7.74A56.44,56.44,0,0,1,13,23.14q-.43,2.94-1.17,2.94C11.29,26.08,10.9,25.13,10.6,23.24Zm1.49-2.92c.06-.92.09-2.64.09-5.17q0-2.79-.09-4.38t-.33-1.59c-.13,0-.23.4-.31,1.2s-.11,2.52-.11,5.15c0,1.91,0,3.42.08,4.52s.17,1.65.35,1.65S12,21.24,12.09,20.32Z"/><path class="cls-16" d="M9.65,5.16V10H9.23l.42,4.1H9.17L8.62,9.48V5.16Z"/><path class="cls-17" d="M6.72,26.08c-.49,0-.87-.49-1.15-1.48a15.22,15.22,0,0,1-.42-4,17.3,17.3,0,0,1,.19-2.81,5.18,5.18,0,0,1,.45-1.6,2.77,2.77,0,0,1,1-.86c.19-.11.28-.41.28-.92A1.63,1.63,0,0,0,7,13.89c-.06-.17-.16-.26-.28-.26s-.45.45-.53,1.36l-.91-.86c.21-2.69.68-4,1.41-4,.42,0,.76.48,1,1.45a15.16,15.16,0,0,1,.39,3.81,19.32,19.32,0,0,1-.23,3.08,3,3,0,0,1-1.15,2,1.1,1.1,0,0,0-.43.44,1.67,1.67,0,0,0-.09.61c0,.61.16.91.46.91s.59-.56.64-1.66l1,.65Q8,26.09,6.72,26.08Z"/><path class="cls-18" d="M4.78,20.25v5.51H3.64V20.25Z"/><path class="cls-19" d="M3.09,20.25v5.51H2V20.25Z"/><path class="cls-20" d="M1.41,20.25v5.51H.27V20.25Z"/></g><text class="cls-21" transform="translate(55.86 25.76) scale(0.2 1)">B<tspan class="cls-22" x="19.86" y="0">A</tspan><tspan class="cls-23" x="38.96" y="0">CK TO THE 90’s...</tspan></text></g></g></svg>