<svg xmlns="http://www.w3.org/2000/svg" viewBox="0 0 115.4 16.86"><g id="Layer_2" data-name="Layer 2"><g id="Layer_1-2" data-name="Layer 1"><path d="M7.74,13.74l.35.19c-.3,1.1-1.66,4.34-2.51,2.22.28-3.75,2.8-7.36,4.77-10.8-2.56,0-7.35,1-8.95,2.79.62,0,2.59.07,1.17.33C0,9.25-.43,8.2.37,5.88,2,3.35,6.7,2.92,9.22,2.68,14.73,3.2,7.48,11.86,7.74,13.74Z"/><path d="M18.13,11.34c-1.7,5-6,4.12-2.43-1.35-1.73,1.09-2.47,3.64-3.84,4.85-3.27-3.14,2.81-10.63,5-13,2.95.65-5.63,8.83-4.62,11,1.49-1.56,2.87-5.14,4.9-4.42C18,9.46,16,10.62,15.87,11.65,15.32,13.56,16.82,12.74,18.13,11.34Z"/><path d="M19.08,9.53c1.34-1.29,4.46-4.45,5.61-2.27,0,.32-.26.32-.58.5.95.88,0,2-.47,2.86-.58,2.07,1.36,1.5,2.6-.06-1.07,3.79-5.35,5.07-3.63.45-1.26,1.48-1.67,2.65-2.92,3.15A2.77,2.77,0,0,1,19.08,9.53ZM23.63,8c-2,1.33-5.51,2.76-3.84,4.64C21.67,11.62,22.32,10,23.63,8Z"/><path d="M29.17,5.36l.42,0c.75-2.21,3.51-2.55,1.38-.05l1,0a15.88,15.88,0,0,1-1.25,2.16h-1.3c-1.86,2.77-1.9,6.49,1.69,2.67-1.17,4.11-6.29,5.3-4.14.26-.3.3-.57.59-.86.89C26,10,27.45,9.4,28.28,7.5a11.77,11.77,0,0,0-1.82.25A2.57,2.57,0,0,1,29.17,5.36Z"/><path d="M35.12,2.26c-1.6-.15,1-3.48,1.38-1.78C36.81,1.44,34,4.39,35.12,2.26Z"/><path d="M36.17,10.09C38.08,7.65,39,6,40.4,4.84,42.16,6.35,41.48,10,39,11.16c1.41.2,2.32-.79,3.39-1.67C41.92,12.52,36.2,14.34,36.17,10.09Zm3.54-1.65-.25-1.38c-.38.47-1.2,1.36-2.43,2.69.89.15.88.33,1.45,1.07A2,2,0,0,0,39.71,8.44Z"/><path d="M49.05,7.59c1.44-1.17,4.81-4.06,5.77-1.8,0,.33-.28.3-.61.45.86,1-.14,2-.71,2.81-.75,2,1.23,1.61,2.59.16-1.37,3.69-5.75,4.61-3.65.15-1.38,1.37-1.87,2.5-3.17,2.9A2.78,2.78,0,0,1,49.05,7.59ZM53.7,6.47c-2.13,1.15-5.71,2.29-4.2,4.3C51.46,9.89,52.23,8.35,53.7,6.47Z"/><path d="M60.64,9.1c-.8,3.46-5.06,4.78-4.77.66.29-2.86,2.69-8.59,5.7-8.82.65,3.19-3.2,5.68-4.26,8.52C57.51,12,59.45,10.34,60.64,9.1Zm-2.9-1.72c1-1.16,3-3.29,2.65-4.74C59.13,3.32,58.09,5.89,57.74,7.38Z"/><path d="M65.19,9.17c-.85,3.44-5.13,4.71-4.78.59.33-2.85,2.8-8.55,5.81-8.74.61,3.2-3.27,5.64-4.37,8.46C62,12,64,10.39,65.19,9.17ZM62.31,7.41c1-1.14,3.08-3.25,2.71-4.71C63.75,3.37,62.68,5.92,62.31,7.41Z"/><path d="M77,8c2.3.63,3.74-3,4.37-4.3-1.72-1.49-6.92,0-9.08.71,2-.09,2.72.26.4.59-3.47,1.65-1.46-2.63.37-3.29C80.31.23,87.64-.79,79.72,8.13l1.5.1c-.86,1.11-1.34,2.06-2.92,1.69C76.53,11.45,73,16.24,71,15a4.44,4.44,0,0,1,3.45-2.58c.73-.58,1.71-1.79,2.42-2.45C71.05,10.46,72.73,8.2,77,8Z"/><path d="M87.79,10.44c0,1.17-1.26,1.5-2.25,1.38C83.12,14.92,80.23,11.57,82,9c.43-1.44,5.34-4,4.76-1.51,1.34.48.08,2.49-.45,3.33C86.75,11.32,87.2,10.74,87.79,10.44ZM86,7.79c-2.54.34-5.5,5.61-1.11,3.43C84.53,9.9,85.21,8.91,86,7.79Z"/><path d="M92.4,10.78c-1.1,3.37-5.47,4.31-4.81.23.54-2.82,3.44-8.32,6.46-8.28.37,3.23-3.69,5.37-5,8.11C89,13.37,91.11,11.9,92.4,10.78Zm-2.74-2c1.09-1.06,3.32-3,3.06-4.49C91.41,4.88,90.14,7.35,89.66,8.8Z"/><path d="M99.58,11.65c-1,2.86-4.82,4-5.38.19-2.12,2.72-2.84,1.77-1.9-1.15,1.32-3,4.5-5.85,7.07-7.68,5.1-1.14-6,6.17-6.33,8.67,5.45-6,10.59-3.71,2.91.44C96.79,14,98.32,12.49,99.58,11.65Zm-3.86,0c4.17-2.46,2.16-3.72-.87-.44A1.77,1.77,0,0,1,95.72,11.7Z"/><path d="M99.45,11.9c2.31-2.06,3.49-3.49,5.09-4.43,1.47,1.8.16,5.27-2.45,6,1.35.45,2.42-.36,3.63-1C104.7,15.3,98.74,16.1,99.45,11.9Zm3.78-1V9.5c-.46.39-1.42,1.12-2.88,2.22.86.31.81.48,1.25,1.3A2,2,0,0,0,103.23,10.9Z"/><path d="M107.23,15.57c-1.43-.27-.38-2.83.54-3C109.27,12.92,108.33,15.41,107.23,15.57ZM113.78,4.3a1.69,1.69,0,0,1,1.62,1c-1.75,1.8-4.33,4.47-5.94,6.34.51.44-.79,1.29-1.06.36C108,9.63,112.76,6,113.78,4.3Z"/></g></g></svg>